<svg width="1200" height="512" xmlns="http://www.w3.org/2000/svg">
 <g>
  <title>Layer 1</title>
  <g id="svg_93">
   <g id="svg_45">
    <rect stroke-opacity="0" id="svg_32" height="96" width="1200" y="0" x="0" fill-opacity="0.75" stroke="#ffffff" fill="#ffffff"/>
    <rect filter="url(#svg_5_blur)" id="svg_33" height="96" width="50" y="0" x="301" fill-opacity="0.75" stroke="#f5f5f5" fill="#f5f5f5"/>
    <rect filter="url(#svg_5_blur)" id="svg_34" height="96" width="50" y="0" x="0" fill-opacity="0.75" stroke="#f5f5f5" fill="#f5f5f5"/>
    <rect filter="url(#svg_5_blur)" id="svg_35" height="96" width="50" y="0" x="101" fill-opacity="0.75" stroke="#f5f5f5" fill="#f5f5f5"/>
    <path id="svg_36" d="m501,0l50,0l0,96l-50,0l0,-96z" filter="url(#svg_5_blur)" opacity="undefined" stroke="#f5f5f5" fill-opacity="0.75" fill="#f5f5f5"/>
    <rect filter="url(#svg_5_blur)" id="svg_37" height="96" width="50" y="0" x="201" fill-opacity="0.75" stroke="#f5f5f5" fill="#f5f5f5"/>
    <rect filter="url(#svg_5_blur)" id="svg_38" height="96" width="50" y="0" x="401" fill-opacity="0.75" stroke="#f5f5f5" fill="#f5f5f5"/>
    <rect filter="url(#svg_5_blur)" id="svg_39" height="96" width="50" y="0" x="1001" fill-opacity="0.75" stroke="#f5f5f5" fill="#f5f5f5"/>
    <rect filter="url(#svg_5_blur)" id="svg_40" height="96" width="50" y="0" x="601" fill-opacity="0.75" stroke="#f5f5f5" fill="#f5f5f5"/>
    <rect filter="url(#svg_5_blur)" id="svg_41" height="96" width="50" y="0" x="801" fill-opacity="0.75" stroke="#f5f5f5" fill="#f5f5f5"/>
    <rect filter="url(#svg_5_blur)" id="svg_42" height="96" width="50" y="0" x="701" fill-opacity="0.75" stroke="#f5f5f5" fill="#f5f5f5"/>
    <rect filter="url(#svg_5_blur)" id="svg_43" height="96" width="50" y="0" x="901" fill-opacity="0.75" stroke="#f5f5f5" fill="#f5f5f5"/>
    <rect filter="url(#svg_5_blur)" id="svg_44" height="96" width="50" y="0" x="1102" fill-opacity="0.75" stroke="#f5f5f5" fill="#f5f5f5"/>
   </g>
   <rect stroke-opacity="0.75" fill-opacity="0.75" stroke="#0092ff" id="svg_8" height="96" width="1200" y="0" x="0" fill="#0092ff"/>
   <text xml:space="preserve" text-anchor="start" font-family="Noto Sans JP" font-size="18" id="svg_92" y="52" x="576.85938" stroke-opacity="0.6" stroke="#ffffff" fill="#ffffff">100%</text>
  </g>
  <g id="svg_105">
   <g id="svg_88">
    <g id="svg_31">
     <rect stroke-opacity="0" id="svg_1" height="96" width="1200" y="416" fill-opacity="0.75" stroke="#ffffff" fill="#ffffff"/>
     <rect filter="url(#svg_5_blur)" id="svg_5" height="96" width="50" y="416" x="301" fill-opacity="0.75" stroke="#f5f5f5" fill="#f5f5f5"/>
     <rect filter="url(#svg_5_blur)" id="svg_7" height="96" width="50" y="416" fill-opacity="0.75" stroke="#f5f5f5" fill="#f5f5f5"/>
     <rect filter="url(#svg_5_blur)" id="svg_13" height="96" width="50" y="416" x="101" fill-opacity="0.75" stroke="#f5f5f5" fill="#f5f5f5"/>
     <path id="svg_22" d="m501,416l50,0l0,96l-50,0l0,-96z" filter="url(#svg_5_blur)" opacity="undefined" stroke="#f5f5f5" fill-opacity="0.75" fill="#f5f5f5"/>
     <rect filter="url(#svg_5_blur)" id="svg_23" height="96" width="50" y="416" x="201" fill-opacity="0.75" stroke="#f5f5f5" fill="#f5f5f5"/>
     <rect filter="url(#svg_5_blur)" id="svg_24" height="96" width="50" y="416" x="401" fill-opacity="0.75" stroke="#f5f5f5" fill="#f5f5f5"/>
     <rect filter="url(#svg_5_blur)" id="svg_25" height="96" width="50" y="416" x="1001" fill-opacity="0.75" stroke="#f5f5f5" fill="#f5f5f5"/>
     <rect filter="url(#svg_5_blur)" id="svg_26" height="96" width="50" y="416" x="601" fill-opacity="0.75" stroke="#f5f5f5" fill="#f5f5f5"/>
     <rect filter="url(#svg_5_blur)" id="svg_27" height="96" width="50" y="416" x="801" fill-opacity="0.75" stroke="#f5f5f5" fill="#f5f5f5"/>
     <rect filter="url(#svg_5_blur)" id="svg_28" height="96" width="50" y="416" x="701" fill-opacity="0.75" stroke="#f5f5f5" fill="#f5f5f5"/>
     <rect filter="url(#svg_5_blur)" id="svg_29" height="96" width="50" y="416" x="901" fill-opacity="0.75" stroke="#f5f5f5" fill="#f5f5f5"/>
     <rect filter="url(#svg_5_blur)" id="svg_30" height="96" width="50" y="416" x="1102" fill-opacity="0.75" stroke="#f5f5f5" fill="#f5f5f5"/>
    </g>
    <rect stroke-opacity="0.6" stroke="#0092ff" id="svg_2" height="96" width="800" y="416" fill="#0092ff" fill-opacity="0.6"/>
    <rect fill-opacity="0" stroke-opacity="0" stroke="#000" id="svg_6" height="96" width="400" y="416" x="801" fill="#0fffff"/>
   </g>
   <text style="cursor: move;" xml:space="preserve" text-anchor="start" font-family="Noto Sans JP" font-size="18" id="svg_102" y="473" x="976" stroke-opacity="0.6" stroke="#999999" fill="#999999">33.33%</text>
   <text xml:space="preserve" text-anchor="start" font-family="Noto Sans JP" font-size="18" id="svg_104" y="473" x="330" stroke-opacity="0.6" stroke="#ffffff" fill="#ffffff">66.66%</text>
  </g>
  <g id="svg_106">
   <g id="svg_89">
    <g id="svg_73">
     <rect stroke-opacity="0" id="svg_60" height="96" width="1200" y="312" x="0" fill-opacity="0.75" stroke="#ffffff" fill="#ffffff"/>
     <rect filter="url(#svg_5_blur)" id="svg_61" height="96" width="50" y="312" x="301" fill-opacity="0.75" stroke="#f5f5f5" fill="#f5f5f5"/>
     <rect filter="url(#svg_5_blur)" id="svg_62" height="96" width="50" y="312" x="0" fill-opacity="0.75" stroke="#f5f5f5" fill="#f5f5f5"/>
     <rect filter="url(#svg_5_blur)" id="svg_63" height="96" width="50" y="312" x="101" fill-opacity="0.75" stroke="#f5f5f5" fill="#f5f5f5"/>
     <path id="svg_64" d="m501,312l50,0l0,96l-50,0l0,-96z" filter="url(#svg_5_blur)" opacity="undefined" stroke="#f5f5f5" fill-opacity="0.75" fill="#f5f5f5"/>
     <rect filter="url(#svg_5_blur)" id="svg_65" height="96" width="50" y="312" x="201" fill-opacity="0.75" stroke="#f5f5f5" fill="#f5f5f5"/>
     <rect filter="url(#svg_5_blur)" id="svg_66" height="96" width="50" y="312" x="401" fill-opacity="0.75" stroke="#f5f5f5" fill="#f5f5f5"/>
     <rect filter="url(#svg_5_blur)" id="svg_67" height="96" width="50" y="312" x="1001" fill-opacity="0.75" stroke="#f5f5f5" fill="#f5f5f5"/>
     <rect filter="url(#svg_5_blur)" id="svg_68" height="96" width="50" y="312" x="601" fill-opacity="0.75" stroke="#f5f5f5" fill="#f5f5f5"/>
     <rect filter="url(#svg_5_blur)" id="svg_69" height="96" width="50" y="312" x="801" fill-opacity="0.75" stroke="#f5f5f5" fill="#f5f5f5"/>
     <rect filter="url(#svg_5_blur)" id="svg_70" height="96" width="50" y="312" x="701" fill-opacity="0.75" stroke="#f5f5f5" fill="#f5f5f5"/>
     <rect filter="url(#svg_5_blur)" id="svg_71" height="96" width="50" y="312" x="901" fill-opacity="0.75" stroke="#f5f5f5" fill="#f5f5f5"/>
     <rect filter="url(#svg_5_blur)" id="svg_72" height="96" width="50" y="312" x="1102" fill-opacity="0.75" stroke="#f5f5f5" fill="#f5f5f5"/>
    </g>
    <rect stroke-opacity="0.75" stroke="#0092ff" id="svg_19" height="96" width="600" y="312" fill="#0092ff" x="0" fill-opacity="0.75"/>
    <rect fill-opacity="0" stroke-opacity="0" stroke="#ffffff" id="svg_21" height="96" width="600" y="312" x="601" fill="#0fffff"/>
   </g>
   <text xml:space="preserve" text-anchor="start" font-family="Noto Sans JP" font-size="18" id="svg_99" y="368" x="929" stroke-opacity="0.6" stroke="#999999" fill="#999999">50%</text>
   <text xml:space="preserve" text-anchor="start" font-family="Noto Sans JP" font-size="18" id="svg_103" y="368" x="279" stroke-opacity="0.6" stroke="#ffffff" fill="#ffffff">50%</text>
  </g>
  <g id="svg_107">
   <g id="svg_90">
    <g id="svg_87">
     <rect stroke-opacity="0" id="svg_74" height="96" width="1200" y="208" x="0" fill-opacity="0.75" stroke="#ffffff" fill="#ffffff"/>
     <rect filter="url(#svg_5_blur)" id="svg_75" height="96" width="50" y="208" x="301" fill-opacity="0.75" stroke="#f5f5f5" fill="#f5f5f5"/>
     <rect filter="url(#svg_5_blur)" id="svg_76" height="96" width="50" y="208" x="0" fill-opacity="0.75" stroke="#f5f5f5" fill="#f5f5f5"/>
     <rect filter="url(#svg_5_blur)" id="svg_77" height="96" width="50" y="208" x="101" fill-opacity="0.75" stroke="#f5f5f5" fill="#f5f5f5"/>
     <path id="svg_78" d="m501,208l50,0l0,96l-50,0l0,-96z" filter="url(#svg_5_blur)" opacity="undefined" stroke="#f5f5f5" fill-opacity="0.75" fill="#f5f5f5"/>
     <rect filter="url(#svg_5_blur)" id="svg_79" height="96" width="50" y="208" x="201" fill-opacity="0.75" stroke="#f5f5f5" fill="#f5f5f5"/>
     <rect filter="url(#svg_5_blur)" id="svg_80" height="96" width="50" y="208" x="401" fill-opacity="0.75" stroke="#f5f5f5" fill="#f5f5f5"/>
     <rect filter="url(#svg_5_blur)" id="svg_81" height="96" width="50" y="208" x="1001" fill-opacity="0.75" stroke="#f5f5f5" fill="#f5f5f5"/>
     <rect filter="url(#svg_5_blur)" id="svg_82" height="96" width="50" y="208" x="601" fill-opacity="0.75" stroke="#f5f5f5" fill="#f5f5f5"/>
     <rect filter="url(#svg_5_blur)" id="svg_83" height="96" width="50" y="208" x="801" fill-opacity="0.75" stroke="#f5f5f5" fill="#f5f5f5"/>
     <rect filter="url(#svg_5_blur)" id="svg_84" height="96" width="50" y="208" x="701" fill-opacity="0.75" stroke="#f5f5f5" fill="#f5f5f5"/>
     <rect filter="url(#svg_5_blur)" id="svg_85" height="96" width="50" y="208" x="901" fill-opacity="0.75" stroke="#f5f5f5" fill="#f5f5f5"/>
     <rect filter="url(#svg_5_blur)" id="svg_86" height="96" width="50" y="208" x="1102" fill-opacity="0.75" stroke="#f5f5f5" fill="#f5f5f5"/>
    </g>
    <rect stroke-opacity="0.6" stroke="#0092ff" id="svg_12" height="96" width="400" y="208" fill="#0092ff" x="801" fill-opacity="0.6"/>
    <rect fill-opacity="0" stroke-opacity="0" stroke="#ffffff" id="svg_18" height="96" width="400" y="208" fill="#0fffff" x="401"/>
    <rect stroke-opacity="0.6" stroke="#0092ff" id="svg_20" height="96" width="400" y="208" fill="#0092ff" x="0" fill-opacity="0.6"/>
   </g>
   <text xml:space="preserve" text-anchor="start" font-family="Noto Sans JP" font-size="18" id="svg_96" y="262" x="573" stroke-opacity="0.6" stroke="#999999" fill="#999999">33.33%</text>
   <text xml:space="preserve" text-anchor="start" font-family="Noto Sans JP" font-size="18" id="svg_100" y="262" x="976" stroke-opacity="0.6" stroke="#ffffff" fill="#ffffff">33.33%</text>
   <text xml:space="preserve" text-anchor="start" font-family="Noto Sans JP" font-size="18" id="svg_101" y="262" x="175" stroke-opacity="0.6" stroke="#ffffff" fill="#ffffff">33.33%</text>
  </g>
  <g id="svg_108">
   <g id="svg_91">
    <g id="svg_59">
     <rect stroke-opacity="0" id="svg_46" height="96" width="1200" y="104" x="0" fill-opacity="0.75" stroke="#ffffff" fill="#ffffff"/>
     <rect filter="url(#svg_5_blur)" id="svg_47" height="96" width="50" y="104" x="301" fill-opacity="0.75" stroke="#f5f5f5" fill="#f5f5f5"/>
     <rect filter="url(#svg_5_blur)" id="svg_48" height="96" width="50" y="104" x="0" fill-opacity="0.75" stroke="#f5f5f5" fill="#f5f5f5"/>
     <rect filter="url(#svg_5_blur)" id="svg_49" height="96" width="50" y="104" x="101" fill-opacity="0.75" stroke="#f5f5f5" fill="#f5f5f5"/>
     <path id="svg_50" d="m501,104l50,0l0,96l-50,0l0,-96z" filter="url(#svg_5_blur)" opacity="undefined" stroke="#f5f5f5" fill-opacity="0.75" fill="#f5f5f5"/>
     <rect filter="url(#svg_5_blur)" id="svg_51" height="96" width="50" y="104" x="201" fill-opacity="0.75" stroke="#f5f5f5" fill="#f5f5f5"/>
     <rect filter="url(#svg_5_blur)" id="svg_52" height="96" width="50" y="104" x="401" fill-opacity="0.75" stroke="#f5f5f5" fill="#f5f5f5"/>
     <rect filter="url(#svg_5_blur)" id="svg_53" height="96" width="50" y="104" x="1001" fill-opacity="0.75" stroke="#f5f5f5" fill="#f5f5f5"/>
     <rect filter="url(#svg_5_blur)" id="svg_54" height="96" width="50" y="104" x="601" fill-opacity="0.75" stroke="#f5f5f5" fill="#f5f5f5"/>
     <rect filter="url(#svg_5_blur)" id="svg_55" height="96" width="50" y="104" x="801" fill-opacity="0.75" stroke="#f5f5f5" fill="#f5f5f5"/>
     <rect filter="url(#svg_5_blur)" id="svg_56" height="96" width="50" y="104" x="701" fill-opacity="0.75" stroke="#f5f5f5" fill="#f5f5f5"/>
     <rect filter="url(#svg_5_blur)" id="svg_57" height="96" width="50" y="104" x="901" fill-opacity="0.75" stroke="#f5f5f5" fill="#f5f5f5"/>
     <rect filter="url(#svg_5_blur)" id="svg_58" height="96" width="50" y="104" x="1102" fill-opacity="0.75" stroke="#f5f5f5" fill="#f5f5f5"/>
    </g>
    <path fill="url(#svg_1)" stroke="url(#svg_13)" stroke-opacity="0.5" opacity="NaN" d="m916,146" id="svg_14"/>
    <rect stroke-opacity="0" fill-opacity="0" stroke="#ffffff" id="svg_3" height="96" width="300" y="104" x="901" fill="#ffffff"/>
    <path id="svg_9" d="m601,104l300,0l0,96l-300,0l0,-96z" opacity="undefined" stroke-opacity="0.6" stroke="#0092ff" fill-opacity="0.6" fill="#0092ff"/>
    <rect stroke-opacity="0" fill-opacity="0" stroke="#ffffff" id="svg_10" height="96" width="300" y="104" x="301" fill="#ffffff"/>
    <rect stroke-opacity="0.6" fill-opacity="0.6" stroke="#0092ff" id="svg_11" height="96" width="300" y="104" fill="#0092ff"/>
   </g>
   <text xml:space="preserve" text-anchor="start" font-family="Noto Sans JP" font-size="18" id="svg_94" y="160" x="739" stroke-opacity="0.6" stroke="#ffffff" fill="#ffffff">25%</text>
   <text xml:space="preserve" text-anchor="start" font-family="Noto Sans JP" font-size="18" id="svg_95" y="160" x="1035" stroke-opacity="0.6" stroke="#999999" fill="#999999">25%</text>
   <text xml:space="preserve" text-anchor="start" font-family="Noto Sans JP" font-size="18" id="svg_97" y="160" x="434" stroke-opacity="0.6" stroke="#999999" fill="#999999">25%</text>
   <text xml:space="preserve" text-anchor="start" font-family="Noto Sans JP" font-size="18" id="svg_98" y="160" x="132" stroke-opacity="0.6" stroke="#ffffff" fill="#ffffff">25%</text>
  </g>
 </g>
 <defs>
  <filter height="200%" width="200%" y="-50%" x="-50%" id="svg_5_blur">
   <feGaussianBlur stdDeviation="1" in="SourceGraphic"/>
  </filter>
 </defs>
</svg>